# xmcd
#
# Track frame offsets:
#	150
#	16202
#	30604
#	49891
#	65794
#	81470
#	98365
#	114418
#	128820
#	148154
#	164055
#	179733
#
# Disc length: 2621 seconds
#
# Revision: 1
# Processed by: cddbd v1.5.2PL0 Copyright (c) Steve Scherf et al.
# Submitted via: audiograbber 1.83.01
#
DISCID=ac0a3b0c
DTITLE=Karaoke Country - Country Chartbusters Vol.29
DYEAR=1900
DGENRE=Karaoke
TTITLE0=It's Not Over (Guide Vocals)
TTITLE1=Perfect Love (Guide Vocals)
TTITLE2=That's Why I'm Here (Guide Vocals)
TTITLE3=Cheatin' on her Heart (Guide Vocals)
TTITLE4=Bye Bye (Guide Vocals)
TTITLE5=If I never Stop Loving You (Guide Vocals)
TTITLE6=It's Not Over (Performance Tracks)
TTITLE7=Perfect Love (Performance Tracks)
TTITLE8=That's Why I'm Here (Performance Tracks)
TTITLE9=Cheatin' On Her Heart (Performance Tracks)
TTITLE10=Bye Bye (Performance Tracks)
TTITLE11=If I Never Stop Loving You (Performance Tracks)
EXTD=
EXTT0=
EXTT1=
EXTT2=
EXTT3=
EXTT4=
EXTT5=
EXTT6=
EXTT7=
EXTT8=
EXTT9=
EXTT10=
EXTT11=
PLAYORDER=
